<?xml version="1.0" encoding="UTF-8" standalone="no"?>
<!DOCTYPE svg PUBLIC "-//W3C//DTD SVG 1.1//EN"
 "http://www.w3.org/Graphics/SVG/1.1/DTD/svg11.dtd">
<!-- Generated by graphviz version 2.40.1 (20161225.0304)
 -->
<!-- Title: dependencies Pages: 1 -->
<svg width="1048pt" height="284pt"
 viewBox="0.00 0.00 1048.00 284.00" xmlns="http://www.w3.org/2000/svg" xmlns:xlink="http://www.w3.org/1999/xlink">
<g id="graph0" class="graph" transform="scale(1 1) rotate(0) translate(4 280)">
<title>dependencies</title>
<polygon fill="#ffffff" stroke="transparent" points="-4,4 -4,-280 1044,-280 1044,4 -4,4"/>
<text text-anchor="start" x="499.0091" y="-42.4" font-family="sans-serif" font-weight="bold" font-size="14.00" fill="#000000">Legend</text>
<polygon fill="#ffffb3" stroke="transparent" points="286,-10 286,-30 306,-30 306,-10 286,-10"/>
<text text-anchor="start" x="309.629" y="-15.4" font-family="sans-serif" font-size="14.00" fill="#000000"> &#160;Declarations</text>
<polygon fill="#8dd3c7" stroke="transparent" points="399,-10 399,-30 419,-30 419,-10 399,-10"/>
<text text-anchor="start" x="422.7251" y="-15.4" font-family="sans-serif" font-size="14.00" fill="#000000"> &#160;Module</text>
<polygon fill="#80b1d3" stroke="transparent" points="485,-10 485,-30 505,-30 505,-10 485,-10"/>
<text text-anchor="start" x="508.7812" y="-15.4" font-family="sans-serif" font-size="14.00" fill="#000000"> &#160;Bootstrap</text>
<polygon fill="#fdb462" stroke="transparent" points="582,-10 582,-30 602,-30 602,-10 582,-10"/>
<text text-anchor="start" x="605.6732" y="-15.4" font-family="sans-serif" font-size="14.00" fill="#000000"> &#160;Providers</text>
<polygon fill="#fb8072" stroke="transparent" points="678,-10 678,-30 698,-30 698,-10 678,-10"/>
<text text-anchor="start" x="701.7258" y="-15.4" font-family="sans-serif" font-size="14.00" fill="#000000"> &#160;Exports</text>
<g id="clust1" class="cluster">
<title>cluster_AppModule</title>
<polygon fill="none" stroke="#000000" stroke-dasharray="1,5" points="8,-70 8,-268 1032,-268 1032,-70 8,-70"/>
</g>
<g id="clust2" class="cluster">
<title>cluster_AppModule_declarations</title>
<polygon fill="none" stroke="#000000" points="288,-78 288,-130 1024,-130 1024,-78 288,-78"/>
</g>
<g id="clust10" class="cluster">
<title>cluster_AppModule_bootstrap</title>
<polygon fill="none" stroke="#000000" points="455,-208 455,-260 579,-260 579,-208 455,-208"/>
</g>
<g id="clust11" class="cluster">
<title>cluster_AppModule_providers</title>
<polygon fill="none" stroke="#000000" points="16,-78 16,-130 280,-130 280,-78 16,-78"/>
</g>
<!-- AppComponent -->
<g id="node1" class="node">
<title>AppComponent</title>
<polygon fill="#ffffb3" stroke="#000000" points="1015.9399,-122 910.0601,-122 910.0601,-86 1015.9399,-86 1015.9399,-122"/>
<text text-anchor="middle" x="963" y="-99.8" font-family="Times,serif" font-size="14.00" fill="#000000">AppComponent</text>
</g>
<!-- AppModule -->
<g id="node6" class="node">
<title>AppModule</title>
<polygon fill="#8dd3c7" stroke="#000000" points="558.6571,-187 555.6571,-191 534.6571,-191 531.6571,-187 475.3429,-187 475.3429,-151 558.6571,-151 558.6571,-187"/>
<text text-anchor="middle" x="517" y="-164.8" font-family="Times,serif" font-size="14.00" fill="#000000">AppModule</text>
</g>
<!-- AppComponent&#45;&gt;AppModule -->
<g id="edge1" class="edge">
<title>AppComponent&#45;&gt;AppModule</title>
<path fill="none" stroke="#000000" d="M963,-122.2921C963,-144.2057 963,-178 963,-178 963,-178 568.9586,-178 568.9586,-178"/>
<polygon fill="#000000" stroke="#000000" points="568.9586,-174.5001 558.9586,-178 568.9586,-181.5001 568.9586,-174.5001"/>
</g>
<!-- BookshelfComponent -->
<g id="node2" class="node">
<title>BookshelfComponent</title>
<polygon fill="#ffffb3" stroke="#000000" points="892.3795,-122 753.6205,-122 753.6205,-86 892.3795,-86 892.3795,-122"/>
<text text-anchor="middle" x="823" y="-99.8" font-family="Times,serif" font-size="14.00" fill="#000000">BookshelfComponent</text>
</g>
<!-- BookshelfComponent&#45;&gt;AppModule -->
<g id="edge2" class="edge">
<title>BookshelfComponent&#45;&gt;AppModule</title>
<path fill="none" stroke="#000000" d="M823,-122.1061C823,-141.3391 823,-169 823,-169 823,-169 568.9064,-169 568.9064,-169"/>
<polygon fill="#000000" stroke="#000000" points="568.9064,-165.5001 558.9064,-169 568.9063,-172.5001 568.9064,-165.5001"/>
</g>
<!-- HeaderComponent -->
<g id="node3" class="node">
<title>HeaderComponent</title>
<polygon fill="#ffffb3" stroke="#000000" points="735.7437,-122 614.2563,-122 614.2563,-86 735.7437,-86 735.7437,-122"/>
<text text-anchor="middle" x="675" y="-99.8" font-family="Times,serif" font-size="14.00" fill="#000000">HeaderComponent</text>
</g>
<!-- HeaderComponent&#45;&gt;AppModule -->
<g id="edge3" class="edge">
<title>HeaderComponent&#45;&gt;AppModule</title>
<path fill="none" stroke="#000000" d="M675,-122.027C675,-138.3976 675,-160 675,-160 675,-160 568.9263,-160 568.9263,-160"/>
<polygon fill="#000000" stroke="#000000" points="568.9263,-156.5001 558.9263,-160 568.9262,-163.5001 568.9263,-156.5001"/>
</g>
<!-- ImageUploadComponent -->
<g id="node4" class="node">
<title>ImageUploadComponent</title>
<polygon fill="#ffffb3" stroke="#000000" points="595.5253,-122 438.4747,-122 438.4747,-86 595.5253,-86 595.5253,-122"/>
<text text-anchor="middle" x="517" y="-99.8" font-family="Times,serif" font-size="14.00" fill="#000000">ImageUploadComponent</text>
</g>
<!-- ImageUploadComponent&#45;&gt;AppModule -->
<g id="edge4" class="edge">
<title>ImageUploadComponent&#45;&gt;AppModule</title>
<path fill="none" stroke="#000000" d="M517,-122.1061C517,-122.1061 517,-140.991 517,-140.991"/>
<polygon fill="#000000" stroke="#000000" points="513.5001,-140.9909 517,-150.991 520.5001,-140.991 513.5001,-140.9909"/>
</g>
<!-- SidebarComponent -->
<g id="node5" class="node">
<title>SidebarComponent</title>
<polygon fill="#ffffb3" stroke="#000000" points="420.0954,-122 295.9046,-122 295.9046,-86 420.0954,-86 420.0954,-122"/>
<text text-anchor="middle" x="358" y="-99.8" font-family="Times,serif" font-size="14.00" fill="#000000">SidebarComponent</text>
</g>
<!-- SidebarComponent&#45;&gt;AppModule -->
<g id="edge5" class="edge">
<title>SidebarComponent&#45;&gt;AppModule</title>
<path fill="none" stroke="#000000" d="M358,-122.027C358,-138.3976 358,-160 358,-160 358,-160 465.2246,-160 465.2246,-160"/>
<polygon fill="#000000" stroke="#000000" points="465.2247,-163.5001 475.2246,-160 465.2246,-156.5001 465.2247,-163.5001"/>
</g>
<!-- AppComponent  -->
<g id="node7" class="node">
<title>AppComponent </title>
<polygon fill="#80b1d3" stroke="#000000" points="571.439,-252 462.561,-252 462.561,-216 571.439,-216 571.439,-252"/>
<text text-anchor="middle" x="517" y="-229.8" font-family="Times,serif" font-size="14.00" fill="#000000">AppComponent </text>
</g>
<!-- AppModule&#45;&gt;AppComponent  -->
<g id="edge6" class="edge">
<title>AppModule&#45;&gt;AppComponent </title>
<path fill="none" stroke="#000000" stroke-dasharray="1,5" d="M517,-187.1061C517,-187.1061 517,-205.991 517,-205.991"/>
<polygon fill="#000000" stroke="#000000" points="513.5001,-205.9909 517,-215.991 520.5001,-205.991 513.5001,-205.9909"/>
</g>
<!-- HttpService -->
<g id="node8" class="node">
<title>HttpService</title>
<ellipse fill="#fdb462" stroke="#000000" cx="215" cy="-104" rx="57.3185" ry="18"/>
<text text-anchor="middle" x="215" y="-99.8" font-family="Times,serif" font-size="14.00" fill="#000000">HttpService</text>
</g>
<!-- HttpService&#45;&gt;AppModule -->
<g id="edge7" class="edge">
<title>HttpService&#45;&gt;AppModule</title>
<path fill="none" stroke="#000000" d="M215,-122.1061C215,-141.3391 215,-169 215,-169 215,-169 465.3253,-169 465.3253,-169"/>
<polygon fill="#000000" stroke="#000000" points="465.3253,-172.5001 475.3253,-169 465.3252,-165.5001 465.3253,-172.5001"/>
</g>
<!-- UserService -->
<g id="node9" class="node">
<title>UserService</title>
<ellipse fill="#fdb462" stroke="#000000" cx="82" cy="-104" rx="58.4415" ry="18"/>
<text text-anchor="middle" x="82" y="-99.8" font-family="Times,serif" font-size="14.00" fill="#000000">UserService</text>
</g>
<!-- UserService&#45;&gt;AppModule -->
<g id="edge8" class="edge">
<title>UserService&#45;&gt;AppModule</title>
<path fill="none" stroke="#000000" d="M82,-122.2921C82,-144.2057 82,-178 82,-178 82,-178 465.2904,-178 465.2904,-178"/>
<polygon fill="#000000" stroke="#000000" points="465.2904,-181.5001 475.2904,-178 465.2903,-174.5001 465.2904,-181.5001"/>
</g>
</g>
</svg>
